<svg width="134" height="39" viewBox="0 0 134 39" fill="none" xmlns="http://www.w3.org/2000/svg">
<g clip-path="url(#clip0_2045_1976)">
<path d="M39.19 22.0812L36.3149 23.7839C34.9504 22.5323 32.3331 21.6403 30.5279 21.3789L30.5279 38.818L27.5217 38.818L27.5217 21.3789C25.6745 21.7383 23.3285 22.5785 21.8851 23.7839L18.9418 22.0812C21.608 19.3731 25.0174 17.9515 28.8745 17.9218C32.6578 17.8926 36.5355 19.3746 39.19 22.0812Z" fill="white"/>
<path fill-rule="evenodd" clip-rule="evenodd" d="M21.9194 15.1246C23.4151 14.0074 24.6595 12.5887 25.6527 10.8685C26.6468 9.14899 27.2532 7.36194 27.4719 5.50739C27.6905 3.65284 27.5705 1.82866 27.1119 0.034851L23.8057 1.87909C23.9658 2.80555 24.0046 3.73147 23.9221 4.65684C23.8396 5.58222 23.6228 6.49954 23.2716 7.40879L18.8411 2.6237L17 3.64577L17 5.7498L21.4659 10.5363C20.854 11.2951 20.168 11.9416 19.4079 12.4757C18.6478 13.0099 17.8824 13.4668 17 13.7914L17 17.3988C18.7838 16.8997 20.4236 16.2418 21.9194 15.1246Z" fill="#FF6DFB"/>
<path fill-rule="evenodd" clip-rule="evenodd" d="M36.7316 15.1246C35.2359 14.0074 33.9915 12.5887 32.9983 10.8685C32.0042 9.14899 31.3978 7.36194 31.1791 5.50739C30.9605 3.65284 31.0805 1.82866 31.5391 0.034851L34.8453 1.87909C34.6852 2.80555 34.6464 3.73147 34.7289 4.65684C34.8114 5.58222 35.0282 6.49954 35.3794 7.40879L39.8099 2.6237L41.651 3.64577L41.651 5.7498L37.1851 10.5363C37.797 11.2951 38.483 11.9416 39.2431 12.4757C40.0032 13.0099 40.7686 13.4668 41.651 13.7914L41.651 17.3988C39.8672 16.8997 38.2274 16.2418 36.7316 15.1246Z" fill="#FF6DFB"/>
<path d="M41.3454 26.7221C42.5864 25.3657 44.2891 24.5865 46.367 24.5865V27.4147C44.2025 27.5013 42.5576 28.8102 41.3454 30.3975V38.89H38.3441L38.3441 24.0845H41.3454V26.7221Z" fill="white"/>
<path d="M53.1538 24.6334C57.6559 24.6334 60.4553 28.0677 59.8781 32.6564H48.7155C49.0041 34.7054 50.7873 36.3348 53.327 36.3348C54.6545 36.3348 56.2087 35.5471 56.7571 34.6814H59.6881C58.8223 37.1344 56.2707 38.89 53.327 38.89C49.0558 38.89 46.1698 35.8021 46.1698 31.7617C46.1698 27.7502 49.0269 24.6334 53.1538 24.6334ZM53.1827 27.173C50.9316 27.173 49.3167 28.5186 48.7155 30.5785H57.6589C57.2831 28.4435 55.2894 27.173 53.1827 27.173Z" fill="white"/>
<path d="M68.8781 24.5306C72.3989 24.5306 74.7943 26.9548 74.7943 30.8797V38.8918H71.7929V31.0528C71.7929 28.5709 70.4653 27.2434 68.272 27.2434C66.9733 27.2434 65.5592 27.9649 64.4914 29.2924V38.8918H61.49V24.0863H64.4914V26.089C65.6747 25.0789 67.1465 24.5306 68.8781 24.5306Z" fill="white"/>
<path d="M87.4804 17.9969H90.4529V38.89H87.4804V37.4471C86.326 38.3706 84.8542 38.89 83.1226 38.89C79.3131 38.89 76.254 35.7155 76.254 31.7329C76.254 27.808 79.3131 24.6334 83.1226 24.6334C84.8542 24.6334 86.326 25.1529 87.4804 26.0475V17.9969ZM83.362 36.4099C86.072 36.3057 88.0967 34.4205 88.0967 31.7329C88.0967 29.095 86.0439 27.0907 83.362 27.0907C80.88 27.0907 78.7775 29.3375 78.7775 31.7329C78.7775 34.1571 80.88 36.4099 83.362 36.4099Z" fill="white"/>
<path d="M93.9044 21.6909C92.8365 21.6909 91.9996 20.9117 91.9996 19.8439C91.9996 18.7761 92.8365 17.9969 93.9044 17.9969C94.9433 17.9969 95.8091 18.7761 95.8091 19.8439C95.8091 20.9117 94.9433 21.6909 93.9044 21.6909ZM92.4584 24.0845H95.4309V38.89H92.4584V24.0845Z" fill="white"/>
<path d="M107.505 35.6073L107.938 38.3489C106.754 38.7818 105.773 38.8973 104.85 38.8973C101.387 38.8973 99.5396 36.8194 99.5396 33.3274V26.5953H95.4309V24.0845H99.5396V17.9969H102.541V24.0845H106.503V26.5953H102.541V33.3274C102.541 35.2898 103.522 36.1267 105.196 36.1267C106.004 36.1267 106.812 35.8959 107.505 35.6073Z" fill="white"/>
<path d="M109.243 11.0075C110.348 11.1402 111.296 11.2065 112.088 11.2065C113.739 11.2065 115.111 11.1567 116.205 11.0573C116.149 11.1899 116.065 11.3723 115.954 11.6045C115.842 11.8366 115.563 12.2788 115.117 12.9311C114.671 13.5722 114.169 14.1747 113.611 14.7385C114.012 14.7385 114.386 14.8546 114.732 15.0867C114.888 15.1862 115.028 15.3465 115.15 15.5676C115.273 15.7777 115.335 16.0596 115.335 16.4133C115.335 16.756 115.251 17.1153 115.084 17.4912C114.927 17.856 114.665 18.2263 114.297 18.6022C113.538 19.3981 112.177 19.973 110.214 20.3267C109.801 20.0062 109.405 19.5695 109.025 19.0167C108.646 18.4751 108.373 18.0108 108.205 17.6238L107.938 17.0269C108.998 17.2922 109.918 17.4248 110.699 17.4248C111.625 17.4248 112.244 17.2811 112.557 16.9937C112.702 16.861 112.774 16.7173 112.774 16.5626C112.774 16.2862 112.557 16.0983 112.121 15.9988C111.843 15.9435 111.575 15.9159 111.318 15.9159L110.548 15.9656C110.37 15.9656 110.247 15.938 110.18 15.8827L112.473 13.7436C111.759 13.7436 111.067 13.8044 110.398 13.926C109.728 14.0476 109.237 14.1692 108.925 14.2908L108.456 14.4732C108.981 13.2019 109.243 12.0467 109.243 11.0075Z" fill="white"/>
</g>
<defs>
<clipPath id="clip0_2045_1976">
<rect width="99.2047" height="38.9303" fill="white" transform="translate(17 0.0348511)"/>
</clipPath>
</defs>
</svg>
