<svg width="29" height="28" viewBox="0 0 29 28" fill="none" xmlns="http://www.w3.org/2000/svg">
<g clip-path="url(#clip0_2042_13)">
<path fill-rule="evenodd" clip-rule="evenodd" d="M14.5 24C20.0228 24 24.5 19.5228 24.5 14C24.5 8.47715 20.0228 4 14.5 4C8.97715 4 4.5 8.47715 4.5 14C4.5 19.5228 8.97715 24 14.5 24ZM12.2236 10.3618C11.8912 10.1956 11.5 10.4373 11.5 10.809V17.191C11.5 17.5627 11.8912 17.8044 12.2236 17.6382L18.6056 14.4472C18.9741 14.263 18.9741 13.737 18.6056 13.5528L12.2236 10.3618Z" fill="#FBFBFC"/>
<mask id="mask0_2042_13" style="mask-type:luminance" maskUnits="userSpaceOnUse" x="0" y="0" width="29" height="28">
<path d="M28.5 0H0.5V28H28.5V0Z" fill="white"/>
<path fill-rule="evenodd" clip-rule="evenodd" d="M14.5 24C20.0228 24 24.5 19.5228 24.5 14C24.5 8.47715 20.0228 4 14.5 4C8.97715 4 4.5 8.47715 4.5 14C4.5 19.5228 8.97715 24 14.5 24ZM12.2236 10.3618C11.8912 10.1956 11.5 10.4373 11.5 10.809V17.191C11.5 17.5627 11.8912 17.8044 12.2236 17.6382L18.6056 14.4472C18.9741 14.263 18.9741 13.737 18.6056 13.5528L12.2236 10.3618Z" fill="black"/>
</mask>
<g mask="url(#mask0_2042_13)">
<path opacity="0.1" d="M20.5 14C20.5 17.3137 17.8137 20 14.5 20V28C22.232 28 28.5 21.732 28.5 14H20.5ZM14.5 8C17.8137 8 20.5 10.6863 20.5 14H28.5C28.5 6.26801 22.232 0 14.5 0V8ZM8.5 14C8.5 10.6863 11.1863 8 14.5 8V0C6.76801 0 0.5 6.26801 0.5 14H8.5ZM14.5 20C11.1863 20 8.5 17.3137 8.5 14H0.5C0.5 21.732 6.76801 28 14.5 28V20ZM15.5 10.809C15.5 13.4109 12.7619 15.1031 10.4348 13.9395L14.0125 6.78409C11.0204 5.28807 7.5 7.4638 7.5 10.809H15.5ZM15.5 17.191V10.809H7.5V17.191H15.5ZM10.4348 14.0605C12.7619 12.8969 15.5 14.5892 15.5 17.191H7.5C7.5 20.5362 11.0204 22.7119 14.0125 21.2159L10.4348 14.0605ZM16.8167 10.8695L10.4348 14.0605L14.0125 21.2159L20.3944 18.0249L16.8167 10.8695ZM16.8167 17.1305C14.2371 15.8407 14.237 12.1594 16.8167 10.8695L20.3944 18.0249C23.7111 16.3666 23.7111 11.6334 20.3944 9.97508L16.8167 17.1305ZM10.4348 13.9395L16.8167 17.1305L20.3944 9.97508L14.0125 6.78409L10.4348 13.9395Z" fill="white"/>
</g>
</g>
<defs>
<clipPath id="clip0_2042_13">
<rect width="29" height="28" fill="white"/>
</clipPath>
</defs>
</svg>
